<?xml version="1.0" encoding="UTF-8"?>
<svg id="Layer_2" data-name="Layer 2" xmlns="http://www.w3.org/2000/svg" viewBox="0 0 647.17 750.98">
  <defs>
    <style>
      .cls-1 {
        fill-rule: evenodd;
      }
    </style>
  </defs>
  <g id="svg2">
    <g>
      <path class="cls-1" d="m293.05,227.72v-72.4c0-11.52-5.32-16.86-16.37-16.86h-18.01v106.13h18.01c11.05,0,16.37-5.35,16.37-16.87Z"/>
      <path class="cls-1" d="m588.4,0H58.77C15.84,0,0,15.84,0,58.79v518.23c0,4.86.2,9.37.63,13.56.98,9.37,1.16,18.46,9.88,28.8.85,1.01,9.75,7.64,9.75,7.64,4.79,2.35,8.06,4.08,13.46,6.25l260.79,109.26c13.54,6.21,19.2,8.63,29.03,8.43h0s.03,0,.04,0h.04c9.83.19,15.49-2.23,29.03-8.43l260.79-109.26c5.4-2.17,8.67-3.9,13.46-6.25,0,0,8.9-6.62,9.75-7.64,8.72-10.34,8.9-19.43,9.88-28.8.43-4.18.63-8.7.63-13.56V58.79c0-42.95-15.84-58.79-58.77-58.79Zm-231.79,99.8h43.81v287.94h-43.81V99.8Zm-19.08,391.4l.59.96.6-.96.6-1.07.71-.96.6-1.08.59-.95.6-1.08.71-.96.6-1.08.6-.96.59-.95.72-1.07.59-.96.6-1.07.6-.96.71-1.08.6-.95.6-1.07.59-.96.6-.96.71-1.07.6-.96.6-1.07.59-.96.72-1.07.59-.96.6-.96.6-1.08.71-.95.6-1.08.59-.96.6-1.08.72-.95.59-1.07.6-.96h24.39v87.01h-22.97v-51.45l-.6.96-.71,1.08-.6.96-.71.96-.6,1.07-.72.96-.59.96-.6,1.08-.71.96-.6.96-.72.96-.59,1.08-.72.96-.59.96-.6,1.08-.72.96-.59.96-.72,1.07-.59.96-.72.96-.59,1.08-.6.96-.72.96-.59,1.08-.72.96-.59.96-.72.96-.6,1.07-.59.96-.72.96-.59,1.08-.72.96-.6.96-.71,1.08-.6.96h-.47l-.72-1.08-.6-.96-.71-1.08-.6-.96-.71-1.07-.6-.96-.71-1.08-.6-.96-.72-1.07-.59-.96-.72-1.08-.59-.96-.72-1.08-.6-.96-.71-1.08-.6-.96-.71-1.08-.72-.96-.6-1.08-.71-.96-.6-1.08-.71-.96-.6-1.08-.71-.96-.6-1.08-.72-.96-.59-1.08-.72-.96-.59-1.07-.72-.96-.6-1.08-.71-.95-.6-1.08-.71-.96v51.21h-22.61v-87.01h24.4l.59.96.6,1.07.71.95.6,1.08.6.96.59,1.08.6.95.71,1.08.6.96.6.96.59,1.07.6.96.71,1.07.6.96.6,1.07.59.96.72.96.6,1.07.59.95.6,1.08.59.96.72,1.07.6.96.59,1.07.6.95.59.96.72,1.08.6.96.59,1.08.6.95.59,1.08.72.96.6,1.07ZM214.87,99.8h68.77c35.61,0,53.21,17.69,53.21,53.47v76.51c0,35.78-17.6,53.47-53.21,53.47h-24.97v104.48h-43.8V99.8Zm-119.39,0h97.43v39.9h-53.63v81.45h51.58v39.9h-51.58v86.8h54.45v39.9h-98.25V99.8Zm82.9,395.64v37.65l-.83.72-.96.72-.83.6-.96.72-.95.6-.95.72-.96.6-.95.6-1.08.6-1.07.6-1.07.6-1.07.47-1.07.6-1.19.48-1.07.48-1.2.48-1.07.48-1.07.36-1.07.36-1.07.36-1.19.36-1.07.36-1.2.24-1.07.24-1.19.24-1.19.24-1.19.12-1.31.12-1.19.12-1.31.12-1.2.12-1.31.12h-5.12l-1.19-.12-1.31-.12-1.19-.12-1.19-.12-1.2-.12-1.19-.24-1.19-.24-1.07-.24-1.19-.24-1.07-.36-1.19-.24-1.08-.36-1.07-.48-1.07-.36-1.19-.48-1.08-.48-1.07-.48-1.07-.48-1.08-.6-.95-.59-1.07-.6-.96-.6-.95-.6-.96-.72-.95-.72-.95-.72-.84-.72-.83-.72-.84-.84-.83-.72-.84-.84-.83-.84-.72-.84-.71-.96-.72-.84-.6-.96-.71-.96-.6-.95-.59-.96-.6-1.08-.6-.96-.47-1.08-.48-1.08-.48-1.08-.47-1.07-.36-.96-.48-1.08-.24-1.08-.35-1.07-.24-1.19-.36-1.08-.24-1.19-.12-1.08-.24-1.2-.12-1.07-.12-1.2-.11-1.2-.12-1.19v-3.95l.12-1.31v-1.19l.11-1.2.12-1.31.24-1.19.12-1.2.24-1.08.36-1.19.24-1.2.35-1.08.36-1.19.36-1.08.48-1.2.47-1.07.48-1.08.48-1.08.47-1.08.6-1.08.6-.96.59-.96.6-.96.6-.96.71-.96.72-.96.71-.96.72-.84.83-.84.72-.84.83-.83.84-.84.83-.72.96-.84.83-.72.95-.72.96-.6.95-.72.96-.6.95-.6,1.07-.6,1.08-.6,1.07-.6,1.07-.48,1.07-.48,1.19-.6.95-.36,1.19-.36,1.08-.48,1.07-.24,1.07-.36,1.19-.24,1.07-.36,1.19-.24,1.19-.12,1.19-.24,1.19-.12,1.19-.12,1.19-.12,1.2-.12h5.11l1.32.12,1.31.12h1.19l1.19.12,1.31.24,1.08.12,1.19.24,1.19.24,1.07.24,1.07.24,1.07.24,1.08.36,1.07.24.95.36,1.08.36,1.07.48,1.07.48,1.08.48,1.07.6,1.07.48.96.6,1.07.6.95.6,1.08.6.95.72.95.6.96.72.95.72.96.84.95.72-.72.96-.83.84-.72.96-.83.96-.72.96-.71.84-.84.96-.71.96-.72.84-.83.96-.72.96-.83.96-.72.84-.71.96-.84.96-.71.96-.84.84-.71.96-.96-.72-.95-.84-.96-.6-.95-.72-.95-.6-.96-.6-.95-.6-1.07-.6-.96-.48-.95-.48-.96-.36-1.07-.36-1.07-.36-1.08-.24-1.19-.24-1.19-.24-1.19-.12-1.31-.12-1.31-.12h-2.5l-1.19.12-1.08.12-1.19.24-1.07.24-1.08.36-1.07.36-1.07.48-1.07.48-.96.6-.95.6-.96.6-.83.72-.84.72-.83.72-.72.84-.83.84-.72.96-.59.84-.6.96-.59,1.08-.6.96-.48,1.08-.36,1.08-.47,1.08-.36,1.19-.24,1.19-.24,1.07-.24,1.32-.12,1.19-.11,1.19v2.75l.11,1.19.12,1.08.12,1.2.24,1.07.24,1.08.24,1.07.36,1.08.35.96.48,1.19.48,1.08.59,1.08.6.96.6.96.71.96.72.84.83.84.72.84.83.72.96.72.95.72.95.6.96.6,1.07.48,1.07.48,1.07.48,1.19.36,1.19.36,1.2.24,1.19.24,1.19.12,1.31.12h2.73l1.32-.12,1.31-.12,1.19-.12,1.19-.24,1.2-.24,1.19-.36,1.07-.24,1.07-.48.96-.48,1.07-.48.84-.48.95-.6v-10.88h-17.38v-17.45h39.27v1.19Zm18.46,49.48h-9.64l.47-1.08.48-1.08.48-1.08.47-1.19.36-1.07.48-1.07.48-1.08.47-1.08.48-1.08.48-1.2.47-1.08.48-1.07.36-1.08.48-1.08.47-1.08.48-1.19.48-1.08.47-1.08.48-1.07.48-1.08.36-1.08.47-1.2.48-1.07.48-1.08.47-1.08.48-1.08.48-1.08.47-1.2.36-1.07.48-1.08.48-1.08.47-1.08.48-1.08.48-1.19.47-1.08.48-1.08.36-1.08.48-1.07.47-1.08.48-1.2.48-1.08.47-1.08.48-1.08.48-1.07.36-1.08.47-1.07.48-1.2.48-1.07.47-1.08.48-1.08.48-1.07.47-1.08.36-1.2.48-1.07.48-1.08.47-1.08.48-1.08.48-1.08.47-1.2.48-1.07.36-1.08.48-1.08.47-1.08.48-1.08.48-1.19.47-1.08.48-1.08.48-1.08.35-1.07.48-1.08.48-1.19.48-1.08.47-1.08.48-1.08.48-1.08.47-1.07.36-1.2.48-1.08.48-1.08.47-1.08h22.02l.48,1.08.48,1.08.47,1.08.48,1.2.36,1.07.47,1.08.48,1.08.48,1.08.48,1.08.47,1.19.48,1.08.48,1.07.35,1.08.48,1.08.48,1.08.48,1.19.47,1.08.48,1.08.48,1.08.47,1.08.36,1.07.48,1.2.47,1.08.48,1.08.48,1.08.48,1.08.47,1.07.48,1.2.36,1.08.47,1.07.48,1.08.48,1.08.48,1.07.47,1.2.48,1.07.48,1.08.35,1.07.48,1.08.48,1.08.47,1.08.48,1.2.48,1.08.48,1.07.47,1.08.36,1.08.48,1.08.47,1.19.48,1.08.48,1.08.48,1.08.47,1.08.48,1.07.36,1.2.47,1.08.48,1.08.48,1.08.47,1.08.48,1.07.48,1.2.48,1.08.35,1.08.48,1.07.48,1.08.47,1.08.48,1.19.48,1.08.48,1.08.47,1.08.36,1.07.48,1.08.47,1.2.48,1.08.48,1.08.47,1.08.48,1.07.48,1.07.36,1.19.47,1.08.48,1.08.48,1.08h-24.52l-.47-1.08-.36-1.08-.48-1.08-.48-1.19-.35-1.07-.48-1.07-.48-1.08-.35-1.08-.48-1.08-.48-1.08-.36-1.08-.47-1.19-.48-1.08-.36-1.08-.48-1.08h-34.15l-.47,1.08-.36,1.08-.48,1.08-.48,1.19-.35,1.08-.48,1.08-.48,1.08-.36,1.08-.47,1.08-.48,1.07-.36,1.07-.47,1.19-.48,1.08-.36,1.08-.48,1.08h-14.39Zm124.73,145.37l-122.76-42.21h250.74l-127.98,42.21Zm149.09-163.89v18.52h-69.38v-87.01h68.78v19.73h-46.06v14.22h41.42v18.52h-41.42v14.82h46.65v1.2Zm-47.09-189.67v-185.92c0-35.79,17.61-53.47,53.22-53.47h21.29c35.61,0,52.8,17.28,52.8,53.06v58.83h-42.98v-56.36c0-11.52-5.32-16.86-16.38-16.86h-7.37c-11.46,0-16.78,5.34-16.78,16.86v181.82c0,11.52,5.32,16.86,16.78,16.86h8.19c11.05,0,16.37-5.34,16.37-16.86v-64.99h42.98v67.05c0,35.79-17.6,53.47-53.21,53.47h-21.7c-35.61,0-53.22-17.68-53.22-53.47Zm129.48,181.42v1.55l-.12,1.31-.12,1.2-.12,1.31-.24,1.2-.36,1.19-.23,1.08-.36,1.2-.48,1.08-.48.96-.47,1.07-.6.96-.6.96-.71.96-.6.96-.71.84-.84.84-.71.72-.95.84-.83.72-.96.72-.95.59-.95.72-1.08.6-1.07.48-1.07.6-1.2.48-1.19.48-1.19.36-1.19.36-1.08.36-1.19.24-1.07.24-1.07.24-1.2.24-1.19.12-1.07.12-1.2.12-1.31.12-1.19.12h-5l-1.19-.12h-1.31l-1.19-.12-1.19-.12-1.31-.12-1.19-.24-1.19-.12-1.2-.24-1.19-.24-1.19-.24-1.19-.24-1.19-.36-1.07-.24-1.19-.36-1.19-.36-1.07-.48-1.19-.36-1.07-.36-1.19-.48-1.07-.48-1.07-.48-1.07-.59-1.07-.48-1.07-.6-.95-.6-1.08-.6-.95-.6-.96-.6-.95-.72-.95-.72-.96-.72-.95-.72-.84-.72-.95-.84.72-.96.83-.84.72-.96.83-.96.72-.84.71-.96.84-.96.71-.84.84-.96.71-.84.84-.96.71-.96.72-.84.83-.96.72-.96.83-.84.72-.96.95.72,1.07.72.96.72,1.07.72.96.6,1.07.72.95.6,1.08.48.95.6,1.07.48,1.08.48,1.07.48,1.07.36,1.07.48,1.19.36,1.19.36,1.07.36,1.2.24,1.19.24,1.19.24,1.31.12,1.19.24h1.19l1.31.12h2.62l1.31-.12,1.2-.24,1.07-.24,1.07-.24.96-.36.83-.48.96-.72.71-.84.48-.96.36-1.07.12-1.2v-.24l-.12-1.43-.48-1.2-.6-.84-.83-.72-.96-.72-.95-.48-1.07-.48-1.2-.48-1.43-.6-.83-.24-.95-.24-1.08-.36-1.07-.24-1.19-.36-1.2-.24-1.31-.36-1.19-.24-1.31-.36-1.19-.24-1.2-.36-1.19-.24-1.19-.36-1.08-.36-1.19-.24-1.07-.36-1.07-.36-1.08-.36-1.31-.48-1.19-.48-1.19-.48-1.19-.48-1.07-.6-1.19-.6-.96-.6-1.07-.6-.95-.72-.96-.6-.83-.72-.84-.84-.83-.84-.72-.84-.71-.84-.6-.84-.59-.96-.6-1.07-.48-.83-.36-.96-.35-1.08-.36-.96-.24-1.2-.24-1.08-.12-1.19-.12-1.2-.12-1.31v-2.75l.12-1.19.12-1.08.12-1.2.24-1.07.24-1.08.36-1.08.24-1.07.47-1.08.48-1.08.48-1.07.59-1.08.6-1.07.71-.96.72-.96.83-.96.84-.84.83-.96.96-.84.83-.6.96-.72.95-.72.95-.6,1.08-.6,1.07-.48,1.07-.6,1.08-.48,1.19-.36,1.19-.48,1.08-.36.95-.24,1.07-.24,1.07-.24,1.19-.24,1.07-.24,1.19-.12,1.2-.12,1.19-.12,1.19-.12h5.12l1.31.12,1.31.12h1.19l1.31.12,1.19.24,1.31.12,1.19.24,1.08.24,1.19.24,1.19.24,1.07.24,1.19.36,1.07.36,1.07.24,1.19.48,1.07.36,1.07.48,1.07.48,1.19.48,1.07.6.95.48,1.08.6,1.07.6.95.6,1.07.72.95.6.96.72.95.72.95.72-.71.96-.6.96-.71.96-.72.96-.71,1.07-.6.96-.72.96-.71.96-.6.96-.71.96-.72.96-.6.96-.71,1.08-.72.96-.71.96-.6.96-.71.96-.96-.72-1.07-.6-.95-.6-.96-.72-1.07-.48-.96-.6-1.07-.48-.95-.48-1.08-.48-.95-.48-1.07-.36-.96-.48-1.31-.36-1.19-.36-1.19-.36-1.2-.24-1.19-.24-1.19-.24-1.19-.12-1.2-.12-1.07-.12h-2.62l-1.31.24-1.2.24-1.07.24-.95.48-.84.48-1.07.96-.72,1.08-.47,1.08-.12,1.19v.24l.12,1.55.59,1.31.48.72.83.84,1.08.6.95.6,1.19.48,1.31.48,1.43.48.95.24.95.36,1.08.24,1.07.36,1.19.24,1.32.36,1.31.36,1.31.36,1.31.24,1.19.36,1.31.36,1.2.24,1.19.36,1.19.36,1.07.36,1.2.36,1.07.36,1.07.36,1.31.47,1.19.6,1.19.48,1.19.6,1.08.6,1.07.6.95.6.96.72.95.6.95.84.96.84.83.96.84.84.71.96.72,1.07.59.96.6,1.08.48.96.36,1.07.35,1.08.24,1.08.24,1.2.24,1.2.12,1.19.12,1.31v1.31Z"/>
      <polygon class="cls-1" points="227.18 510.14 228.37 510.14 229.56 510.14 230.75 510.14 231.94 510.14 233.13 510.14 234.32 510.14 235.39 510.14 236.58 510.14 237.77 510.14 238.96 510.14 240.15 510.14 241.34 510.14 242.53 510.14 243.72 510.14 244.91 510.14 244.43 509.06 244.07 507.98 243.6 506.78 243.12 505.71 242.77 504.63 242.3 503.55 241.82 502.35 241.46 501.27 240.98 500.2 240.51 499.12 240.15 498.04 239.67 496.84 239.32 495.77 238.84 494.68 238.36 493.61 238.01 492.53 237.53 491.33 237.06 490.25 236.7 489.18 236.22 488.1 235.75 486.9 235.39 485.82 234.91 484.74 234.44 485.82 234.08 486.9 233.6 488.1 233.13 489.18 232.77 490.25 232.3 491.33 231.82 492.53 231.35 493.61 230.99 494.68 230.51 495.77 230.03 496.84 229.68 498.04 229.2 499.12 228.72 500.2 228.37 501.27 227.89 502.35 227.42 503.55 226.94 504.63 226.59 505.71 226.11 506.78 225.63 507.98 225.27 509.06 224.8 510.14 225.99 510.14 227.18 510.14"/>
    </g>
  </g>
</svg>