<?xml version="1.0" encoding="UTF-8"?>
<svg id="Layer_2" data-name="Layer 2" xmlns="http://www.w3.org/2000/svg" xmlns:xlink="http://www.w3.org/1999/xlink" viewBox="0 0 63.93 64">
  <defs>
    <style>
    </style>
    <symbol id="B" viewBox="0 0 63.93 64">
      <g>
        <path d="m19.45,13.27c-1.55.65-2.8,1.85-3.52,3.36l3.96-1.64c2.57-1.07,5.52.15,6.59,2.72,0,0,0,0,0,0,1.07,2.57-.14,5.53-2.72,6.6l-4.1,1.7c1.58.6,3.37.62,5.05-.08,1.7-.7,3-2.03,3.7-3.72s.69-3.56-.01-5.25h0c-1.45-3.5-5.47-5.15-8.95-3.69Z"/>
        <path d="m31.93,0C17.51,0,5.32,9.55,1.32,22.66l12.11-5c.6-2.73,2.48-5.12,5.24-6.27,4.52-1.88,9.72.26,11.6,4.78.48,1.16.72,2.4.68,3.66l11.19,8.01h.28c6.71,0,12.16,5.46,12.16,12.17s-5.44,12.16-12.16,12.17c-6.7,0-12.15-5.46-12.15-12.17h0v-.16s-7.83-11.38-7.83-11.38c-1.27.06-2.54-.16-3.75-.66-.53-.21-1.03-.48-1.5-.8L.01,34.11s0,0,0,0c0,0,0,.02-.01.02,1.1,16.68,14.97,29.87,31.93,29.87s32-14.33,32-32S49.6,0,31.93,0Z"/>
        <path d="m50.54,40.01c0-4.47-3.63-8.1-8.1-8.11-4.47.01-8.09,3.64-8.1,8.11,0,4.47,3.63,8.1,8.1,8.11,4.47-.01,8.1-3.64,8.1-8.11Zm-14.17.01h0c0-3.36,2.72-6.09,6.08-6.09,3.36,0,6.09,2.73,6.08,6.09,0,3.36-2.73,6.09-6.08,6.09-3.36,0-6.08-2.73-6.08-6.09Z"/>
      </g>
    </symbol>
  </defs>
  <g id="Layer_1-2" data-name="Layer 1">
    <use width="63.93" height="64" transform="translate(0 64) scale(1 -1)" xlink:href="#B"/>
  </g>
</svg>