<?xml version="1.0" encoding="utf-8"?>
<!-- Generator: Adobe Illustrator 27.5.0, SVG Export Plug-In . SVG Version: 6.00 Build 0)  -->
<svg version="1.1" id="Layer_1" xmlns="http://www.w3.org/2000/svg" xmlns:xlink="http://www.w3.org/1999/xlink" x="0px" y="0px"
	 viewBox="0 0 800 800" style="enable-background:new 0 0 800 800;" xml:space="preserve">
<g>
	<path d="M617.8,438.5c-36.6,0-71-15.5-102.2-40.8l7.6-35.7l0.3-1.3c6.8-38,28.2-101.7,94.2-101.7c49.5,0,89.8,40.3,89.8,89.8
		C707.4,398.3,667.1,438.5,617.8,438.5L617.8,438.5z M617.8,168.2c-84.3,0-149.7,54.8-176.3,144.9c-40.6-60.9-71.3-134-89.3-195.6
		h-90.8v236.2c0,46.5-38,84.5-84.5,84.5s-84.5-38-84.5-84.5V117.5H1.6v236.2C1.3,450.4,80,529.8,176.8,529.8s175.5-79.4,175.5-176.1
		v-39.6c17.7,36.8,39.3,73.9,65.5,107l-55.6,261.5H455l40.3-189.7c35.3,22.6,75.9,36.8,122.5,36.8c99.5,0,180.6-81.5,180.6-181.1
		C798.4,249.2,717.3,168.2,617.8,168.2L617.8,168.2z"/>
</g>
</svg>
